<svg width="26" height="26" viewBox="0 0 26 26" fill="none" xmlns="http://www.w3.org/2000/svg">
<mask id="mask0_925_3802" style="mask-type:alpha" maskUnits="userSpaceOnUse" x="0" y="0" width="26" height="26">
<rect width="26" height="26" fill="#D9D9D9"/>
</mask>
<g mask="url(#mask0_925_3802)">
<path d="M7.70637 11.2075C7.24944 11.2075 6.86437 11.0509 6.55116 10.7377C6.23797 10.4245 6.08137 10.0395 6.08137 9.58252C6.08137 9.12557 6.23797 8.7405 6.55116 8.42731C6.86437 8.11411 7.24944 7.95752 7.70637 7.95752C8.16332 7.95752 8.54839 8.11411 8.86158 8.42731C9.17478 8.7405 9.33137 9.12557 9.33137 9.58252C9.33137 10.0395 9.17478 10.4245 8.86158 10.7377C8.54839 11.0509 8.16332 11.2075 7.70637 11.2075ZM6.08137 22.7492C5.77443 22.7492 5.51713 22.6454 5.3095 22.4377C5.10186 22.2301 4.99804 21.9728 4.99804 21.6659C4.51678 21.6659 4.10481 21.4945 3.76212 21.1518C3.4194 20.8091 3.24805 20.3971 3.24805 19.9159V15.1659H6.08137V14.3534C6.08137 13.7922 6.2779 13.3152 6.67095 12.9221C7.06402 12.529 7.54111 12.3325 8.10222 12.3325C8.43554 12.3325 8.74874 12.4047 9.0418 12.5492C9.33486 12.6936 9.59388 12.8922 9.81887 13.145L10.9189 14.4075C11.0633 14.552 11.2033 14.6874 11.3387 14.8138C11.4741 14.9402 11.6231 15.0575 11.7856 15.1659H18.9564V6.25335C18.9564 5.85189 18.8123 5.50777 18.5241 5.22099C18.2359 4.93423 17.8901 4.79085 17.4866 4.79085C17.3137 4.79085 17.1498 4.83078 16.9949 4.91064C16.8401 4.9905 16.6967 5.09641 16.5647 5.22836L15.2106 6.58253C15.3008 6.88947 15.3189 7.1919 15.2647 7.48982C15.2106 7.78773 15.1022 8.06308 14.9397 8.31586L12.7106 6.07417C12.9633 5.91167 13.2342 5.80785 13.5231 5.76271C13.8119 5.71757 14.1008 5.74917 14.3897 5.8575L15.7439 4.50334C15.9772 4.27001 16.2434 4.07904 16.5423 3.93044C16.8413 3.78183 17.1585 3.70752 17.4939 3.70752C18.2085 3.70752 18.8115 3.95317 19.3028 4.44446C19.7941 4.93577 20.0397 5.53873 20.0397 6.25335V15.1659H22.7481V19.9159C22.7481 20.3971 22.5767 20.8091 22.234 21.1518C21.8913 21.4945 21.4793 21.6659 20.9981 21.6659C20.9981 21.9728 20.8942 22.2301 20.6866 22.4377C20.479 22.6454 20.2217 22.7492 19.9147 22.7492H6.08137ZM4.99804 20.5825H20.9981C21.1925 20.5825 21.3522 20.52 21.4772 20.395C21.6022 20.27 21.6647 20.1103 21.6647 19.9159V16.2492H4.33138V19.9159C4.33138 20.1103 4.39388 20.27 4.51888 20.395C4.64388 20.52 4.8036 20.5825 4.99804 20.5825Z" fill="#EDDFD0"/>
</g>
</svg>
