<svg width="26" height="26" viewBox="0 0 26 26" fill="none" xmlns="http://www.w3.org/2000/svg">
<mask id="mask0_925_3806" style="mask-type:alpha" maskUnits="userSpaceOnUse" x="0" y="0" width="26" height="26">
<rect width="26" height="26" fill="#D9D9D9"/>
</mask>
<g mask="url(#mask0_925_3806)">
<path d="M6.08397 21.6673C5.58537 21.6673 5.16905 21.5003 4.83503 21.1663C4.501 20.8322 4.33398 20.4159 4.33398 19.9173V16.2507H5.41732V19.9173C5.41732 20.084 5.48676 20.2368 5.62564 20.3757C5.76454 20.5145 5.91732 20.584 6.08397 20.584H9.75065V21.6673H6.08397ZM16.2507 21.6673V20.584H19.9173C20.084 20.584 20.2368 20.5145 20.3757 20.3757C20.5145 20.2368 20.584 20.084 20.584 19.9173V16.2507H21.6673V19.9173C21.6673 20.4159 21.5003 20.8322 21.1663 21.1663C20.8322 21.5003 20.4159 21.6673 19.9173 21.6673H16.2507ZM4.33398 9.75065V6.08397C4.33398 5.58537 4.501 5.16905 4.83503 4.83503C5.16905 4.501 5.58537 4.33398 6.08397 4.33398H9.75065V5.41732H6.08397C5.91732 5.41732 5.76454 5.48676 5.62564 5.62564C5.48676 5.76454 5.41732 5.91732 5.41732 6.08397V9.75065H4.33398ZM20.584 9.75065V6.08397C20.584 5.91732 20.5145 5.76454 20.3757 5.62564C20.2368 5.48676 20.084 5.41732 19.9173 5.41732H16.2507V4.33398H19.9173C20.4159 4.33398 20.8322 4.501 21.1663 4.83503C21.5003 5.16905 21.6673 5.58537 21.6673 6.08397V9.75065H20.584Z" fill="#EDDFD0"/>
</g>
</svg>
