<svg width="33" height="34" viewBox="0 0 33 34" fill="none" xmlns="http://www.w3.org/2000/svg">
<mask id="mask0_925_3840" style="mask-type:alpha" maskUnits="userSpaceOnUse" x="0" y="0" width="33" height="34">
<rect y="0.773926" width="32.4526" height="32.4526" fill="#D9D9D9"/>
</mask>
<g mask="url(#mask0_925_3840)">
<path d="M13.522 21.837L21.063 17.0003L13.522 12.1636V21.837ZM16.2309 29.17C14.548 29.17 12.9658 28.8507 11.4844 28.212C10.0029 27.5733 8.71418 26.7065 7.61827 25.6117C6.52239 24.5168 5.65482 23.2293 5.01555 21.7492C4.37628 20.2691 4.05664 18.6876 4.05664 17.0048C4.05664 15.3219 4.37597 13.7398 5.01463 12.2583C5.65332 10.7768 6.52009 9.48811 7.61496 8.3922C8.70983 7.29632 9.99731 6.42874 11.4774 5.78947C12.9575 5.1502 14.539 4.83057 16.2218 4.83057C17.9047 4.83057 19.4869 5.1499 20.9683 5.78856C22.4498 6.42724 23.7385 7.29402 24.8344 8.38889C25.9303 9.48376 26.7979 10.7712 27.4372 12.2513C28.0764 13.7314 28.3961 15.3129 28.3961 16.9957C28.3961 18.6786 28.0767 20.2608 27.4381 21.7423C26.7994 23.2238 25.9326 24.5124 24.8377 25.6083C23.7429 26.7042 22.4554 27.5718 20.9753 28.2111C19.4952 28.8503 17.9137 29.17 16.2309 29.17ZM16.2263 27.8178C19.2462 27.8178 21.8041 26.7698 23.9 24.674C25.9959 22.5781 27.0439 20.0202 27.0439 17.0003C27.0439 13.9804 25.9959 11.4225 23.9 9.3266C21.8041 7.2307 19.2462 6.18276 16.2263 6.18276C13.2065 6.18276 10.6486 7.2307 8.55267 9.3266C6.45678 11.4225 5.40883 13.9804 5.40883 17.0003C5.40883 20.0202 6.45678 22.5781 8.55267 24.674C10.6486 26.7698 13.2065 27.8178 16.2263 27.8178Z" fill="#EDDFD0"/>
</g>
</svg>
