<svg width="115" height="13" viewBox="0 0 115 13" fill="none" xmlns="http://www.w3.org/2000/svg">
<g clip-path="url(#clip0_925_3487)">
<path d="M4.51941 12.9889V7.31111H6.38163L6.73011 4.95556H4.51941V3.43333C4.51941 2.78889 4.82434 2.16667 5.81534 2.16667H6.81723V0.166667C6.81723 0.166667 5.90246 0 5.03125 0C3.21259 0 2.02557 1.13333 2.02557 3.16667V4.95556H0V7.31111H2.02557V12.9889H4.51941Z" fill="#EDDFD0"/>
<path d="M30.9076 5.5L35.5468 0H34.4469L30.4175 4.77778L27.194 0H23.4805L28.3484 7.23333L23.4805 13.0111H24.5804L28.8384 7.96667L32.2362 13.0111H35.9497L30.8967 5.51111L30.9076 5.5ZM29.4047 7.28889L28.9147 6.56667L24.9942 0.844444H26.6822L29.8512 5.46667L30.3413 6.18889L34.4577 12.2H32.7698L29.4156 7.3L29.4047 7.28889Z" fill="#EDDFD0"/>
<path d="M59.4057 2.32227C58.9919 2.32227 58.6543 2.66671 58.6543 3.08893C58.6543 3.51115 58.9919 3.8556 59.4057 3.8556C59.8195 3.8556 60.1571 3.51115 60.1571 3.08893C60.1571 2.66671 59.8195 2.32227 59.4057 2.32227Z" fill="#EDDFD0"/>
<path d="M56.0836 3.2998C54.3521 3.2998 52.9473 4.73314 52.9473 6.4998C52.9473 8.26647 54.3521 9.6998 56.0836 9.6998C57.8152 9.6998 59.22 8.26647 59.22 6.4998C59.22 4.73314 57.8152 3.2998 56.0836 3.2998ZM56.0836 8.55536C54.9728 8.55536 54.069 7.63314 54.069 6.4998C54.069 5.36647 54.9728 4.44425 56.0836 4.44425C57.1944 4.44425 58.0983 5.36647 58.0983 6.4998C58.0983 7.63314 57.1944 8.55536 56.0836 8.55536Z" fill="#EDDFD0"/>
<path d="M58.5663 13H53.4806C51.368 13 49.6582 11.2444 49.6582 9.1V3.9C49.6582 1.74444 51.3788 0 53.4806 0H58.5663C60.679 0 62.3888 1.75556 62.3888 3.9V9.08889C62.3888 11.2444 60.6681 12.9889 58.5663 12.9889V13ZM53.4806 1.22222C52.0323 1.22222 50.8561 2.42222 50.8561 3.9V9.08889C50.8561 10.5667 52.0323 11.7667 53.4806 11.7667H58.5663C60.0147 11.7667 61.1909 10.5667 61.1909 9.08889V3.9C61.1909 2.42222 60.0147 1.22222 58.5663 1.22222H53.4806Z" fill="#EDDFD0"/>
<path d="M76.2178 4.27778H78.8423V12.8778H76.2178V4.27778ZM77.5246 0C78.3632 0 79.0384 0.7 79.0384 1.54444C79.0384 2.38889 78.3632 3.1 77.5246 3.1C76.6861 3.1 76 2.4 76 1.54444C76 0.688889 76.6752 0 77.5246 0Z" fill="#EDDFD0"/>
<path d="M80.4863 4.27752H83.002V5.4553H83.0346C83.3831 4.77752 84.2434 4.06641 85.5176 4.06641C88.1748 4.06641 88.6539 5.84418 88.6539 8.16641V12.8775H86.0403V8.69974C86.0403 7.69974 86.0185 6.42196 84.679 6.42196C83.3395 6.42196 83.1109 7.51085 83.1109 8.63307V12.8886H80.4972V4.27752H80.4863Z" fill="#EDDFD0"/>
</g>
<defs>
<clipPath id="clip0_925_3487">
<rect width="115" height="13" fill="white"/>
</clipPath>
</defs>
</svg>
